# xmcd
#
# Track frame offsets: 
#        150
#        450
#        16281
#        36827
#        52170
#        62675
#        74870
#        106812
#        122603
#        128189
#        143851
#        160023
#        183751
#        202631
#        219803
#        232101
#        248196
#        260484
#
# Disc length: 3658 seconds
#
# Revision: 0
# Processed by: cddbd v1.5.2PL0 Copyright (c) Steve Scherf et al.
# Submitted via: ExactAudioCopy v1.0b3
#
DISCID=f70e4812
DTITLE=Ferenczi György és a Rackajam - Rackák menni Amerika
DYEAR=2014
DGENRE=Blues
TTITLE0=Gentlemen
TTITLE1=Ki vagyok én?
TTITLE2=Hajnali bossa
TTITLE3=Járóka
TTITLE4=Van így néha
TTITLE5=Így bocskorosan
TTITLE6=Kalotaszegi szvit... Erzsébetről
TTITLE7=Szegény Ady Endre
TTITLE8=Apor Lázár tánca
TTITLE9=Nem ver meg engem az Isten
TTITLE10=Fűszedő
TTITLE11=Robotos
TTITLE12=Tiltakozni és akarni
TTITLE13=Elfogyott a pezsgő
TTITLE14=Az Isten balján
TTITLE15=A hajnali csillag
TTITLE16=Tetovált lány
TTITLE17=Kaszárnya
EXTD=
EXTT0=
EXTT1=
EXTT2=
EXTT3=
EXTT4=
EXTT5=
EXTT6=
EXTT7=
EXTT8=
EXTT9=
EXTT10=
EXTT11=
EXTT12=
EXTT13=
EXTT14=
EXTT15=
EXTT16=
EXTT17=
PLAYORDER=
